<svg width="1171" height="28" viewBox="0 0 1171 28" fill="none" xmlns="http://www.w3.org/2000/svg">
<path d="M10.2144 1.82357L7.42127 7.73368L1.17202 8.68447C0.0513489 8.8541 -0.397776 10.2959 0.414926 11.1217L4.93611 15.7195L3.86677 22.2143C3.67429 23.3883 4.85912 24.2677 5.85147 23.7186L11.442 20.652L17.0325 23.7186C18.0249 24.2632 19.2097 23.3883 19.0172 22.2143L17.9479 15.7195L22.4691 11.1217C23.2818 10.2959 22.8326 8.8541 21.712 8.68447L15.4627 7.73368L12.6696 1.82357C12.1692 0.770106 10.7191 0.756715 10.2144 1.82357Z" fill="#E1571B"/>
<path d="M361.055 1.82357L358.262 7.73368L352.013 8.68447C350.892 8.8541 350.443 10.2959 351.256 11.1217L355.777 15.7195L354.707 22.2143C354.515 23.3883 355.7 24.2677 356.692 23.7186L362.283 20.652L367.873 23.7186C368.865 24.2632 370.05 23.3883 369.858 22.2143L368.788 15.7195L373.31 11.1217C374.122 10.2959 373.673 8.8541 372.553 8.68447L366.303 7.73368L363.51 1.82357C363.01 0.770106 361.56 0.756715 361.055 1.82357Z" fill="#E1571B"/>
<path d="M360.958 1.81552L358.191 7.6658L352.001 8.60698C350.891 8.77488 350.447 10.2021 351.252 11.0196L355.73 15.5708L354.671 21.9999C354.48 23.162 355.654 24.0325 356.636 23.489L362.174 20.4534L367.711 23.489C368.694 24.028 369.868 23.162 369.677 21.9999L368.618 15.5708L373.096 11.0196C373.901 10.2021 373.456 8.77488 372.346 8.60698L366.156 7.6658L363.39 1.81552C362.894 0.772721 361.458 0.759465 360.958 1.81552Z" fill="#E1571B"/>
<path d="M398.407 1.81552L395.641 7.6658L389.451 8.60698C388.341 8.77488 387.896 10.2021 388.701 11.0196L393.179 15.5708L392.12 21.9999C391.929 23.162 393.103 24.0325 394.086 23.489L399.623 20.4534L405.161 23.489C406.144 24.028 407.317 23.162 407.126 21.9999L406.067 15.5708L410.546 11.0196C411.351 10.2021 410.906 8.77488 409.796 8.60698L403.606 7.6658L400.839 1.81552C400.343 0.772721 398.907 0.759465 398.407 1.81552Z" fill="#E1571B"/>
<path d="M433.886 1.81552L431.119 7.6658L424.929 8.60698C423.819 8.77488 423.374 10.2021 424.179 11.0196L428.657 15.5708L427.598 21.9999C427.408 23.162 428.581 24.0325 429.564 23.489L435.101 20.4534L440.639 23.489C441.622 24.028 442.795 23.162 442.605 21.9999L441.546 15.5708L446.024 11.0196C446.829 10.2021 446.384 8.77488 445.274 8.60698L439.084 7.6658L436.317 1.81552C435.822 0.772721 434.385 0.759465 433.886 1.81552Z" fill="#E1571B"/>
<path d="M476.262 0.787078L473.496 6.63736L467.306 7.57853C466.196 7.74644 465.751 9.17366 466.556 9.99111L471.034 14.5423L469.975 20.9714C469.784 22.1335 470.958 23.004 471.941 22.4605L477.478 19.4249L483.016 22.4605C483.999 22.9996 485.172 22.1335 484.982 20.9714L483.922 14.5423L488.401 9.99111C489.206 9.17366 488.761 7.74644 487.651 7.57853L481.461 6.63736L478.694 0.787078C478.199 -0.255721 476.762 -0.268977 476.262 0.787078Z" fill="#E1571B"/>
<path d="M711.896 3.8807L709.102 9.79081L702.853 10.7416C701.733 10.9112 701.283 12.353 702.096 13.1789L706.617 17.7766L705.548 24.2715C705.355 25.4454 706.54 26.3248 707.533 25.7758L713.123 22.7091L718.714 25.7758C719.706 26.3204 720.891 25.4454 720.698 24.2715L719.629 17.7766L724.15 13.1789C724.963 12.353 724.514 10.9112 723.393 10.7416L717.144 9.79081L714.351 3.8807C713.85 2.82724 712.4 2.81384 711.896 3.8807Z" fill="#E1571B"/>
<path d="M1043.03 4.90902L1040.23 10.8191L1033.98 11.7699C1032.86 11.9395 1032.41 13.3814 1033.23 14.2072L1037.75 18.8049L1036.68 25.2998C1036.49 26.4738 1037.67 27.3531 1038.66 26.8041L1044.25 23.7374L1049.84 26.8041C1050.84 27.3487 1052.02 26.4738 1051.83 25.2998L1050.76 18.8049L1055.28 14.2072C1056.09 13.3814 1055.64 11.9395 1054.52 11.7699L1048.27 10.8191L1045.48 4.90902C1044.98 3.85556 1043.53 3.84216 1043.03 4.90902Z" fill="#E1571B"/>
<path d="M1085.4 4.90902L1082.61 10.8191L1076.36 11.7699C1075.24 11.9395 1074.79 13.3814 1075.6 14.2072L1080.12 18.8049L1079.06 25.2998C1078.86 26.4738 1080.05 27.3531 1081.04 26.8041L1086.63 23.7374L1092.22 26.8041C1093.21 27.3487 1094.4 26.4738 1094.21 25.2998L1093.14 18.8049L1097.66 14.2072C1098.47 13.3814 1098.02 11.9395 1096.9 11.7699L1090.65 10.8191L1087.86 4.90902C1087.36 3.85556 1085.91 3.84216 1085.4 4.90902Z" fill="#E1571B"/>
<path d="M1120.88 5.93758L1118.09 11.8477L1111.84 12.7985C1110.72 12.9681 1110.27 14.4099 1111.08 15.2357L1115.6 19.8335L1114.53 26.3283C1114.34 27.5023 1115.53 28.3817 1116.52 27.8327L1122.11 24.766L1127.7 27.8327C1128.69 28.3772 1129.88 27.5023 1129.68 26.3283L1128.61 19.8335L1133.14 15.2357C1133.95 14.4099 1133.5 12.9681 1132.38 12.7985L1126.13 11.8477L1123.34 5.93758C1122.84 4.88412 1121.39 4.87073 1120.88 5.93758Z" fill="#E1571B"/>
<path d="M1158.33 5.93758L1155.54 11.8477L1149.29 12.7985C1148.17 12.9681 1147.72 14.4099 1148.53 15.2357L1153.05 19.8335L1151.98 26.3283C1151.79 27.5023 1152.98 28.3817 1153.97 27.8327L1159.56 24.766L1165.15 27.8327C1166.14 28.3772 1167.33 27.5023 1167.13 26.3283L1166.06 19.8335L1170.59 15.2357C1171.4 14.4099 1170.95 12.9681 1169.83 12.7985L1163.58 11.8477L1160.79 5.93758C1160.29 4.88412 1158.84 4.87073 1158.33 5.93758Z" fill="#E1571B"/>
<path d="M754.272 2.85238L751.479 8.76249L745.23 9.71328C744.109 9.88291 743.66 11.3247 744.473 12.1505L748.994 16.7483L747.925 23.2431C747.732 24.4171 748.917 25.2965 749.909 24.7474L755.5 21.6808L761.091 24.7474C762.083 25.292 763.268 24.4171 763.075 23.2431L762.006 16.7483L766.527 12.1505C767.34 11.3247 766.891 9.88291 765.77 9.71328L759.521 8.76249L756.728 2.85238C756.227 1.79891 754.777 1.78552 754.272 2.85238Z" fill="#E1571B"/>
<path d="M796.649 2.85238L793.856 8.76249L787.607 9.71328C786.486 9.88291 786.037 11.3247 786.85 12.1505L791.371 16.7483L790.302 23.2431C790.109 24.4171 791.294 25.2965 792.286 24.7474L797.877 21.6808L803.467 24.7474C804.46 25.292 805.645 24.4171 805.452 23.2431L804.383 16.7483L808.904 12.1505C809.717 11.3247 809.267 9.88291 808.147 9.71328L801.898 8.76249L799.104 2.85238C798.604 1.79891 797.154 1.78552 796.649 2.85238Z" fill="#E1571B"/>
<path d="M832.127 1.82357L829.334 7.73368L823.085 8.68447C821.964 8.8541 821.515 10.2959 822.328 11.1217L826.849 15.7195L825.78 22.2143C825.587 23.3883 826.772 24.2677 827.764 23.7186L833.355 20.652L838.946 23.7186C839.938 24.2632 841.123 23.3883 840.93 22.2143L839.861 15.7195L844.382 11.1217C845.195 10.2959 844.746 8.8541 843.625 8.68447L837.376 7.73368L834.583 1.82357C834.082 0.770106 832.632 0.756715 832.127 1.82357Z" fill="#E1571B"/>
<path d="M41.7506 1.82357L38.9575 7.73368L32.7083 8.68447C31.5876 8.8541 31.1385 10.2959 31.9512 11.1217L36.4723 15.7195L35.403 22.2143C35.2105 23.3883 36.3954 24.2677 37.3877 23.7186L42.9782 20.652L48.5688 23.7186C49.5611 24.2632 50.7459 23.3883 50.5535 22.2143L49.4841 15.7195L54.0053 11.1217C54.818 10.2959 54.3689 8.8541 53.2482 8.68447L46.999 7.73368L44.2058 1.82357C43.7054 0.770106 42.2554 0.756715 41.7506 1.82357Z" fill="#E1571B"/>
</svg>
