<svg width="1210" height="33" viewBox="0 0 1210 33" fill="none" xmlns="http://www.w3.org/2000/svg">
<path d="M10.2144 4.8109L7.42127 10.6799L1.17202 11.6241C0.0513489 11.7925 -0.397776 13.2243 0.414926 14.0444L4.93611 18.6102L3.86677 25.0599C3.67429 26.2257 4.85912 27.099 5.85147 26.5537L11.442 23.5084L17.0325 26.5537C18.0249 27.0945 19.2097 26.2257 19.0172 25.0599L17.9479 18.6102L22.4691 14.0444C23.2818 13.2243 22.8326 11.7925 21.712 11.6241L15.4627 10.6799L12.6696 4.8109C12.1692 3.76476 10.7191 3.75146 10.2144 4.8109Z" fill="#E1571B"/>
<path d="M361.055 4.8109L358.262 10.6799L352.013 11.6241C350.892 11.7925 350.443 13.2243 351.256 14.0444L355.777 18.6102L354.707 25.0599C354.515 26.2257 355.7 27.099 356.692 26.5537L362.283 23.5084L367.873 26.5537C368.865 27.0945 370.05 26.2257 369.858 25.0599L368.788 18.6102L373.31 14.0444C374.122 13.2243 373.673 11.7925 372.553 11.6241L366.303 10.6799L363.51 4.8109C363.01 3.76476 361.56 3.75146 361.055 4.8109Z" fill="#E1571B"/>
<path d="M360.958 4.80291L358.191 10.6125L352.001 11.5471C350.891 11.7139 350.447 13.1312 351.252 13.9429L355.73 18.4625L354.671 24.8469C354.48 26.0009 355.654 26.8654 356.636 26.3256L362.174 23.3111L367.711 26.3256C368.694 26.861 369.868 26.0009 369.677 24.8469L368.618 18.4625L373.096 13.9429C373.901 13.1312 373.456 11.7139 372.346 11.5471L366.156 10.6125L363.39 4.80291C362.894 3.76736 361.458 3.75419 360.958 4.80291Z" fill="#E1571B"/>
<path d="M398.407 4.80291L395.641 10.6125L389.451 11.5471C388.341 11.7139 387.896 13.1312 388.701 13.9429L393.179 18.4625L392.12 24.8469C391.929 26.0009 393.103 26.8654 394.086 26.3256L399.623 23.3111L405.161 26.3256C406.144 26.861 407.317 26.0009 407.126 24.8469L406.067 18.4625L410.546 13.9429C411.351 13.1312 410.906 11.7139 409.796 11.5471L403.606 10.6125L400.839 4.80291C400.343 3.76736 398.907 3.75419 398.407 4.80291Z" fill="#E1571B"/>
<path d="M433.886 4.80291L431.119 10.6125L424.929 11.5471C423.819 11.7139 423.374 13.1312 424.179 13.9429L428.657 18.4625L427.598 24.8469C427.408 26.0009 428.581 26.8654 429.564 26.3256L435.101 23.3111L440.639 26.3256C441.622 26.861 442.795 26.0009 442.605 24.8469L441.546 18.4625L446.024 13.9429C446.829 13.1312 446.384 11.7139 445.274 11.5471L439.084 10.6125L436.317 4.80291C435.822 3.76736 434.385 3.75419 433.886 4.80291Z" fill="#E1571B"/>
<path d="M476.262 3.78161L473.496 9.59121L467.306 10.5258C466.196 10.6926 465.751 12.1099 466.556 12.9216L471.034 17.4412L469.975 23.8256C469.784 24.9796 470.958 25.8441 471.941 25.3043L477.478 22.2898L483.016 25.3043C483.999 25.8397 485.172 24.9796 484.982 23.8256L483.922 17.4412L488.401 12.9216C489.206 12.1099 488.761 10.6926 487.651 10.5258L481.461 9.59121L478.694 3.78161C478.199 2.74606 476.762 2.73289 476.262 3.78161Z" fill="#E1571B"/>
<path d="M711.896 6.85369L709.102 12.7227L702.853 13.6669C701.733 13.8353 701.283 15.2671 702.096 16.0872L706.617 20.653L705.548 27.1027C705.355 28.2685 706.54 29.1417 707.533 28.5965L713.123 25.5512L718.714 28.5965C719.706 29.1373 720.891 28.2685 720.698 27.1027L719.629 20.653L724.15 16.0872C724.963 15.2671 724.514 13.8353 723.393 13.6669L717.144 12.7227L714.351 6.85369C713.85 5.80755 712.4 5.79425 711.896 6.85369Z" fill="#E1571B"/>
<path d="M1043.03 7.87499L1040.23 13.744L1033.98 14.6882C1032.86 14.8566 1032.41 16.2884 1033.23 17.1085L1037.75 21.6743L1036.68 28.124C1036.49 29.2898 1037.67 30.163 1038.66 29.6178L1044.25 26.5725L1049.84 29.6178C1050.84 30.1586 1052.02 29.2898 1051.83 28.124L1050.76 21.6743L1055.28 17.1085C1056.09 16.2884 1055.64 14.8566 1054.52 14.6882L1048.27 13.744L1045.48 7.87499C1044.98 6.82885 1043.53 6.81555 1043.03 7.87499Z" fill="#E1571B"/>
<path d="M1085.4 7.87499L1082.61 13.744L1076.36 14.6882C1075.24 14.8566 1074.79 16.2884 1075.6 17.1085L1080.12 21.6743L1079.06 28.124C1078.86 29.2898 1080.05 30.163 1081.04 29.6178L1086.63 26.5725L1092.22 29.6178C1093.21 30.1586 1094.4 29.2898 1094.21 28.124L1093.14 21.6743L1097.66 17.1085C1098.47 16.2884 1098.02 14.8566 1096.9 14.6882L1090.65 13.744L1087.86 7.87499C1087.36 6.82885 1085.91 6.81555 1085.4 7.87499Z" fill="#E1571B"/>
<path d="M1120.88 8.89623L1118.09 14.7652L1111.84 15.7094C1110.72 15.8779 1110.27 17.3097 1111.08 18.1297L1115.6 22.6955L1114.53 29.1452C1114.34 30.311 1115.53 31.1843 1116.52 30.639L1122.11 27.5937L1127.7 30.639C1128.69 31.1798 1129.88 30.311 1129.68 29.1452L1128.61 22.6955L1133.14 18.1297C1133.95 17.3097 1133.5 15.8779 1132.38 15.7094L1126.13 14.7652L1123.34 8.89623C1122.84 7.85009 1121.39 7.83679 1120.88 8.89623Z" fill="#E1571B"/>
<path d="M1158.33 8.89623L1155.54 14.7652L1149.29 15.7094C1148.17 15.8779 1147.72 17.3097 1148.53 18.1297L1153.05 22.6955L1151.98 29.1452C1151.79 30.311 1152.98 31.1843 1153.97 30.639L1159.56 27.5937L1165.15 30.639C1166.14 31.1798 1167.33 30.311 1167.13 29.1452L1166.06 22.6955L1170.59 18.1297C1171.4 17.3097 1170.95 15.8779 1169.83 15.7094L1163.58 14.7652L1160.79 8.89623C1160.29 7.85009 1158.84 7.83679 1158.33 8.89623Z" fill="#E1571B"/>
<path d="M754.272 5.83257L751.479 11.7016L745.23 12.6458C744.109 12.8142 743.66 14.246 744.473 15.0661L748.994 19.6318L747.925 26.0815C747.732 27.2474 748.917 28.1206 749.909 27.5754L755.5 24.5301L761.091 27.5754C762.083 28.1162 763.268 27.2474 763.075 26.0815L762.006 19.6318L766.527 15.0661C767.34 14.246 766.891 12.8142 765.77 12.6458L759.521 11.7016L756.728 5.83257C756.227 4.78643 754.777 4.77313 754.272 5.83257Z" fill="#E1571B"/>
<path d="M796.649 5.83257L793.856 11.7016L787.607 12.6458C786.486 12.8142 786.037 14.246 786.85 15.0661L791.371 19.6318L790.302 26.0815C790.109 27.2474 791.294 28.1206 792.286 27.5754L797.877 24.5301L803.467 27.5754C804.46 28.1162 805.645 27.2474 805.452 26.0815L804.383 19.6318L808.904 15.0661C809.717 14.246 809.267 12.8142 808.147 12.6458L801.898 11.7016L799.104 5.83257C798.604 4.78643 797.154 4.77313 796.649 5.83257Z" fill="#E1571B"/>
<path d="M832.127 4.8109L829.334 10.6799L823.085 11.6241C821.964 11.7925 821.515 13.2243 822.328 14.0444L826.849 18.6102L825.78 25.0599C825.587 26.2257 826.772 27.099 827.764 26.5537L833.355 23.5084L838.946 26.5537C839.938 27.0945 841.123 26.2257 840.93 25.0599L839.861 18.6102L844.382 14.0444C845.195 13.2243 844.746 11.7925 843.625 11.6241L837.376 10.6799L834.583 4.8109C834.082 3.76476 832.632 3.75146 832.127 4.8109Z" fill="#E1571B"/>
<path d="M41.7506 4.8109L38.9575 10.6799L32.7083 11.6241C31.5876 11.7925 31.1385 13.2243 31.9512 14.0444L36.4723 18.6102L35.403 25.0599C35.2105 26.2257 36.3954 27.099 37.3877 26.5537L42.9782 23.5084L48.5688 26.5537C49.5611 27.0945 50.7459 26.2257 50.5535 25.0599L49.4841 18.6102L54.0053 14.0444C54.818 13.2243 54.3689 11.7925 53.2482 11.6241L46.999 10.6799L44.2058 4.8109C43.7054 3.76476 42.2554 3.75146 41.7506 4.8109Z" fill="#E1571B"/>
<path d="M169.668 9.70949L162.568 8.62734L159.396 1.90441C159.11 1.30367 158.554 1 157.998 1C157.445 1 156.892 1.29961 156.606 1.90441L153.432 8.62684L146.332 9.70797C145.058 9.90094 144.548 11.5407 145.471 12.4801L150.608 17.7106L149.392 25.0982C149.219 26.1535 150.024 27 150.925 27C151.164 27 151.41 26.9406 151.647 26.8096L157.999 23.3219L164.35 26.8106C164.586 26.9401 164.831 26.999 165.069 26.999C165.972 26.999 166.778 26.1555 166.605 25.0998L165.391 17.7116L170.528 12.4821C171.452 11.5427 170.942 9.90246 169.668 9.70949ZM163.763 15.9657L162.884 16.8605L163.092 18.1239L164.039 23.8851L159.085 21.1637L157.999 20.5675L158.001 4.46023L160.476 9.70543L161.018 10.8546L162.231 11.0395L167.772 11.8839L163.763 15.9657Z" fill="#E1571B"/>
<path d="M526.668 8.70949L519.568 7.62734L516.396 0.904414C516.11 0.303672 515.554 0 514.998 0C514.445 0 513.892 0.299609 513.606 0.904414L510.432 7.62684L503.332 8.70797C502.058 8.90094 501.548 10.5407 502.471 11.4801L507.608 16.7106L506.392 24.0982C506.219 25.1535 507.024 26 507.925 26C508.164 26 508.41 25.9406 508.647 25.8096L514.999 22.3219L521.35 25.8106C521.586 25.9401 521.831 25.999 522.069 25.999C522.972 25.999 523.778 25.1555 523.605 24.0998L522.391 16.7116L527.528 11.4821C528.452 10.5427 527.942 8.90246 526.668 8.70949ZM520.763 14.9657L519.884 15.8605L520.092 17.1239L521.039 22.8851L516.085 20.1637L514.999 19.5675L515.001 3.46023L517.476 8.70543L518.018 9.85461L519.231 10.0395L524.772 10.8839L520.763 14.9657Z" fill="#E1571B"/>
<path d="M883.668 9.70949L876.568 8.62734L873.396 1.90441C873.11 1.30367 872.554 1 871.998 1C871.445 1 870.892 1.29961 870.606 1.90441L867.432 8.62684L860.332 9.70797C859.058 9.90094 858.548 11.5407 859.471 12.4801L864.608 17.7106L863.392 25.0982C863.219 26.1535 864.024 27 864.925 27C865.164 27 865.41 26.9406 865.647 26.8096L871.999 23.3219L878.35 26.8106C878.586 26.9401 878.831 26.999 879.069 26.999C879.972 26.999 880.778 26.1555 880.605 25.0998L879.391 17.7116L884.528 12.4821C885.452 11.5427 884.942 9.90246 883.668 9.70949ZM877.763 15.9657L876.884 16.8605L877.092 18.1239L878.039 23.8851L873.085 21.1637L871.999 20.5675L872.001 4.46023L874.476 9.70543L875.018 10.8546L876.231 11.0395L881.772 11.8839L877.763 15.9657Z" fill="#E1571B"/>
<path d="M1208.67 15.7095L1201.57 14.6273L1198.4 7.90441C1198.11 7.30367 1197.55 7 1197 7C1196.44 7 1195.89 7.29961 1195.61 7.90441L1192.43 14.6268L1185.33 15.708C1184.06 15.9009 1183.55 17.5407 1184.47 18.4801L1189.61 23.7106L1188.39 31.0982C1188.22 32.1535 1189.02 33 1189.93 33C1190.16 33 1190.41 32.9406 1190.65 32.8096L1197 29.3219L1203.35 32.8106C1203.59 32.9401 1203.83 32.999 1204.07 32.999C1204.97 32.999 1205.78 32.1555 1205.61 31.0998L1204.39 23.7116L1209.53 18.4821C1210.45 17.5427 1209.94 15.9025 1208.67 15.7095ZM1202.76 21.9657L1201.88 22.8605L1202.09 24.1239L1203.04 29.8851L1198.08 27.1637L1197 26.5675L1197 10.4602L1199.48 15.7054L1200.02 16.8546L1201.23 17.0395L1206.77 17.8839L1202.76 21.9657Z" fill="#E1571B"/>
<path d="M77.9271 0.869652L75.486 7.3337L70.0243 8.37361C69.0449 8.55913 68.6524 10.1361 69.3626 11.0393L73.314 16.068L72.3795 23.1716C72.2112 24.4556 73.2467 25.4174 74.114 24.8169L79 21.4628L83.886 24.8169C84.7533 25.4125 85.7888 24.4556 85.6206 23.1716L84.686 16.068L88.6374 11.0393C89.3476 10.1361 88.9551 8.55913 87.9757 8.37361L82.514 7.3337L80.0729 0.869652C79.6355 -0.282549 78.3682 -0.297196 77.9271 0.869652Z" fill="#E1571B"/>
<path d="M112.927 2.86965L110.486 9.3337L105.024 10.3736C104.045 10.5591 103.652 12.1361 104.363 13.0393L108.314 18.068L107.379 25.1716C107.211 26.4556 108.247 27.4174 109.114 26.8169L114 23.4628L118.886 26.8169C119.753 27.4125 120.789 26.4556 120.621 25.1716L119.686 18.068L123.637 13.0393C124.348 12.1361 123.955 10.5591 122.976 10.3736L117.514 9.3337L115.073 2.86965C114.636 1.71745 113.368 1.7028 112.927 2.86965Z" fill="#E1571B"/>
</svg>
