<svg width="1171" height="49" viewBox="0 0 1171 49" fill="none" xmlns="http://www.w3.org/2000/svg">
<path d="M10.2144 3.87804L7.42127 13.9757L1.17202 15.6002C0.0513489 15.89 -0.397776 18.3534 0.414926 19.7643L4.93611 27.6198L3.86677 38.7165C3.67429 40.7223 4.85912 42.2248 5.85147 41.2867L11.442 36.0472L17.0325 41.2867C18.0249 42.2172 19.2097 40.7223 19.0172 38.7165L17.9479 27.6198L22.4691 19.7643C23.2818 18.3534 22.8326 15.89 21.712 15.6002L15.4627 13.9757L12.6696 3.87804C12.1692 2.07815 10.7191 2.05527 10.2144 3.87804Z" fill="#E1571B"/>
<path d="M361.055 3.87804L358.262 13.9757L352.013 15.6002C350.892 15.89 350.443 18.3534 351.256 19.7643L355.777 27.6198L354.707 38.7165C354.515 40.7223 355.7 42.2248 356.692 41.2867L362.283 36.0472L367.873 41.2867C368.865 42.2172 370.05 40.7223 369.858 38.7165L368.788 27.6198L373.31 19.7643C374.122 18.3534 373.673 15.89 372.553 15.6002L366.303 13.9757L363.51 3.87804C363.01 2.07815 361.56 2.05527 361.055 3.87804Z" fill="#E1571B"/>
<path d="M360.958 3.86429L358.191 13.8597L352.001 15.4678C350.891 15.7547 350.447 18.1931 351.252 19.5898L355.73 27.3657L354.671 38.3501C354.48 40.3356 355.654 41.8229 356.636 40.8943L362.174 35.7078L367.711 40.8943C368.694 41.8153 369.868 40.3356 369.677 38.3501L368.618 27.3657L373.096 19.5898C373.901 18.1931 373.456 15.7547 372.346 15.4678L366.156 13.8597L363.39 3.86429C362.894 2.08262 361.458 2.05997 360.958 3.86429Z" fill="#E1571B"/>
<path d="M398.407 3.86429L395.641 13.8597L389.451 15.4678C388.341 15.7547 387.896 18.1931 388.701 19.5898L393.179 27.3657L392.12 38.3501C391.929 40.3356 393.103 41.8229 394.086 40.8943L399.623 35.7078L405.161 40.8943C406.144 41.8153 407.317 40.3356 407.126 38.3501L406.067 27.3657L410.546 19.5898C411.351 18.1931 410.906 15.7547 409.796 15.4678L403.606 13.8597L400.839 3.86429C400.343 2.08262 398.907 2.05997 398.407 3.86429Z" fill="#E1571B"/>
<path d="M433.886 3.86429L431.119 13.8597L424.929 15.4678C423.819 15.7547 423.374 18.1931 424.179 19.5898L428.657 27.3657L427.598 38.3501C427.408 40.3356 428.581 41.8229 429.564 40.8943L435.101 35.7078L440.639 40.8943C441.622 41.8153 442.795 40.3356 442.605 38.3501L441.546 27.3657L446.024 19.5898C446.829 18.1931 446.384 15.7547 445.274 15.4678L439.084 13.8597L436.317 3.86429C435.822 2.08262 434.385 2.05997 433.886 3.86429Z" fill="#E1571B"/>
<path d="M476.262 2.10721L473.496 12.1027L467.306 13.7107C466.196 13.9976 465.751 16.436 466.556 17.8327L471.034 25.6086L469.975 36.593C469.784 38.5786 470.958 40.0658 471.941 39.1372L477.478 33.9507L483.016 39.1372C483.999 40.0582 485.172 38.5786 484.982 36.593L483.922 25.6086L488.401 17.8327C489.206 16.436 488.761 13.9976 487.651 13.7107L481.461 12.1027L478.694 2.10721C478.199 0.325541 476.762 0.302892 476.262 2.10721Z" fill="#E1571B"/>
<path d="M711.896 7.39281L709.102 17.4905L702.853 19.115C701.733 19.4048 701.283 21.8682 702.096 23.2791L706.617 31.1345L705.548 42.2313C705.355 44.2371 706.54 45.7396 707.533 44.8015L713.123 39.562L718.714 44.8015C719.706 45.7319 720.891 44.2371 720.698 42.2313L719.629 31.1345L724.15 23.2791C724.963 21.8682 724.514 19.4048 723.393 19.115L717.144 17.4905L714.351 7.39281C713.85 5.59292 712.4 5.57004 711.896 7.39281Z" fill="#E1571B"/>
<path d="M1043.03 9.14989L1040.23 19.2476L1033.98 20.872C1032.86 21.1618 1032.41 23.6253 1033.23 25.0362L1037.75 32.8916L1036.68 43.9884C1036.49 45.9942 1037.67 47.4966 1038.66 46.5586L1044.25 41.3191L1049.84 46.5586C1050.84 47.489 1052.02 45.9942 1051.83 43.9884L1050.76 32.8916L1055.28 25.0362C1056.09 23.6253 1055.64 21.1618 1054.52 20.872L1048.27 19.2476L1045.48 9.14989C1044.98 7.35 1043.53 7.32712 1043.03 9.14989Z" fill="#E1571B"/>
<path d="M1085.4 9.14989L1082.61 19.2476L1076.36 20.872C1075.24 21.1618 1074.79 23.6253 1075.6 25.0362L1080.12 32.8916L1079.06 43.9884C1078.86 45.9942 1080.05 47.4966 1081.04 46.5586L1086.63 41.3191L1092.22 46.5586C1093.21 47.489 1094.4 45.9942 1094.21 43.9884L1093.14 32.8916L1097.66 25.0362C1098.47 23.6253 1098.02 21.1618 1096.9 20.872L1090.65 19.2476L1087.86 9.14989C1087.36 7.35 1085.91 7.32712 1085.4 9.14989Z" fill="#E1571B"/>
<path d="M1120.88 10.907L1118.09 21.0046L1111.84 22.6291C1110.72 22.9189 1110.27 25.3823 1111.08 26.7933L1115.6 34.6487L1114.53 45.7455C1114.34 47.7513 1115.53 49.2537 1116.52 48.3156L1122.11 43.0761L1127.7 48.3156C1128.69 49.2461 1129.88 47.7513 1129.68 45.7455L1128.61 34.6487L1133.14 26.7933C1133.95 25.3823 1133.5 22.9189 1132.38 22.6291L1126.13 21.0046L1123.34 10.907C1122.84 9.10708 1121.39 9.0842 1120.88 10.907Z" fill="#E1571B"/>
<path d="M1158.33 10.907L1155.54 21.0046L1149.29 22.6291C1148.17 22.9189 1147.72 25.3823 1148.53 26.7933L1153.05 34.6487L1151.98 45.7455C1151.79 47.7513 1152.98 49.2537 1153.97 48.3156L1159.56 43.0761L1165.15 48.3156C1166.14 49.2461 1167.33 47.7513 1167.13 45.7455L1166.06 34.6487L1170.59 26.7933C1171.4 25.3823 1170.95 22.9189 1169.83 22.6291L1163.58 21.0046L1160.79 10.907C1160.29 9.10708 1158.84 9.0842 1158.33 10.907Z" fill="#E1571B"/>
<path d="M754.272 5.63597L751.479 15.7336L745.23 17.3581C744.109 17.6479 743.66 20.1113 744.473 21.5223L748.994 29.3777L747.925 40.4745C747.732 42.4803 748.917 43.9827 749.909 43.0446L755.5 37.8051L761.091 43.0446C762.083 43.9751 763.268 42.4803 763.075 40.4745L762.006 29.3777L766.527 21.5223C767.34 20.1113 766.891 17.6479 765.77 17.3581L759.521 15.7336L756.728 5.63597C756.227 3.83609 754.777 3.81321 754.272 5.63597Z" fill="#E1571B"/>
<path d="M796.649 5.63597L793.856 15.7336L787.607 17.3581C786.486 17.6479 786.037 20.1113 786.85 21.5223L791.371 29.3777L790.302 40.4745C790.109 42.4803 791.294 43.9827 792.286 43.0446L797.877 37.8051L803.467 43.0446C804.46 43.9751 805.645 42.4803 805.452 40.4745L804.383 29.3777L808.904 21.5223C809.717 20.1113 809.267 17.6479 808.147 17.3581L801.898 15.7336L799.104 5.63597C798.604 3.83609 797.154 3.81321 796.649 5.63597Z" fill="#E1571B"/>
<path d="M832.127 3.87804L829.334 13.9757L823.085 15.6002C821.964 15.89 821.515 18.3534 822.328 19.7643L826.849 27.6198L825.78 38.7165C825.587 40.7223 826.772 42.2248 827.764 41.2867L833.355 36.0472L838.946 41.2867C839.938 42.2172 841.123 40.7223 840.93 38.7165L839.861 27.6198L844.382 19.7643C845.195 18.3534 844.746 15.89 843.625 15.6002L837.376 13.9757L834.583 3.87804C834.082 2.07815 832.632 2.05527 832.127 3.87804Z" fill="#E1571B"/>
<path d="M41.7506 3.87804L38.9575 13.9757L32.7083 15.6002C31.5876 15.89 31.1385 18.3534 31.9512 19.7643L36.4723 27.6198L35.403 38.7165C35.2105 40.7223 36.3954 42.2248 37.3877 41.2867L42.9782 36.0472L48.5688 41.2867C49.5611 42.2172 50.7459 40.7223 50.5535 38.7165L49.4841 27.6198L54.0053 19.7643C54.818 18.3534 54.3689 15.89 53.2482 15.6002L46.999 13.9757L44.2058 3.87804C43.7054 2.07815 42.2554 2.05527 41.7506 3.87804Z" fill="#E1571B"/>
</svg>
