<svg width="26" height="26" viewBox="0 0 26 26" fill="none" xmlns="http://www.w3.org/2000/svg">
<path d="M24.6684 8.70949L17.5684 7.62734L14.3956 0.904414C14.1104 0.303672 13.554 0 12.9976 0C12.4447 0 11.8922 0.299609 11.606 0.904414L8.43217 7.62684L1.33173 8.70797C0.0584243 8.90094 -0.451868 10.5407 0.471218 11.4801L5.60761 16.7106L4.39203 24.0982C4.21935 25.1535 5.02408 26 5.92533 26C6.16447 26 6.4104 25.9406 6.64663 25.8096L12.9986 22.3219L19.3501 25.8106C19.5858 25.9401 19.8313 25.999 20.0695 25.999C20.9717 25.999 21.7779 25.1555 21.6052 24.0998L20.3911 16.7116L25.5284 11.4821C26.452 10.5427 25.9417 8.90246 24.6684 8.70949ZM18.7632 14.9657L17.8842 15.8605L18.0918 17.1239L19.0387 22.8851L14.0847 20.1637L12.9991 19.5675L13.0006 3.46023L15.4759 8.70543L16.0182 9.85461L17.2313 10.0395L22.7723 10.8839L18.7632 14.9657Z" fill="#E1571B"/>
</svg>
