<svg width="18" height="32" viewBox="0 0 18 32" fill="none" xmlns="http://www.w3.org/2000/svg">
<path d="M5.84306 9.40808L5.85515 9.40481L5.85836 9.3927L8.05537 1.11872C8.2532 0.374477 8.6328 0.0194641 9.00113 0.0217121C9.36968 0.0239614 9.7485 0.383912 9.94464 1.11875L12.1416 9.3927L12.1449 9.40481L12.1569 9.40808L17.0724 10.7392L17.0725 10.7392C17.2856 10.7966 17.469 10.9623 17.6144 11.2003C17.7597 11.4381 17.8658 11.746 17.9248 12.0835C18.0428 12.7589 17.9712 13.5472 17.6546 14.1198L17.6736 14.1303L17.6546 14.1198L14.0984 20.5565L14.0944 20.5543L14.0958 20.569L14.9369 29.6616C15.0122 30.4795 14.8177 31.1908 14.51 31.6018C14.3563 31.8073 14.1757 31.9359 13.9882 31.9679C13.8017 31.9998 13.6038 31.9369 13.4125 31.7501L13.3974 31.7656L13.4125 31.7501L9.01516 27.4569L9 27.4421L8.98484 27.4569L4.58746 31.7501L4.5874 31.7502C4.39608 31.9385 4.1982 32.0022 4.01174 31.9706C3.82431 31.9388 3.64377 31.8101 3.48997 31.6042C3.18233 31.1924 2.98777 30.4795 3.06312 29.6616L3.90424 20.569L3.90875 20.5694L3.90162 20.5565L0.345366 14.1198L0.345362 14.1198C0.0287671 13.5472 -0.0427772 12.7589 0.0752253 12.0835C0.134187 11.746 0.240259 11.4381 0.385577 11.2003C0.531006 10.9623 0.714441 10.7966 0.927529 10.7392L0.927556 10.7392L5.84306 9.40808Z" stroke="#E1571B" stroke-width="0.0434028"/>
</svg>
