<svg width="24" height="40" viewBox="0 0 24 40" fill="none" xmlns="http://www.w3.org/2000/svg">
<path d="M13.7958 37.3208L12.6066 39.3542C12.1031 40.2153 11.2889 40.2153 10.7908 39.3542L0.377636 21.5571C-0.125879 20.6961 -0.125879 19.3039 0.377636 18.452L10.7908 0.645752C11.2943 -0.215251 12.1085 -0.215251 12.6066 0.645752L13.7958 2.67918C14.3047 3.54935 14.2939 4.96909 13.7744 5.82093L7.31972 16.3362H22.7144C23.4268 16.3362 24 17.3162 24 18.5345V21.4655C24 22.6838 23.4268 23.6638 22.7144 23.6638H7.31972L13.7744 34.1791C14.2993 35.0309 14.31 36.4507 13.7958 37.3208Z" fill="white"/>
</svg>
