<svg width="28" height="43" viewBox="0 0 28 43" fill="none" xmlns="http://www.w3.org/2000/svg">
<path d="M26.566 14.5945L18.9199 12.8759L15.503 2.1988C15.1958 1.24473 14.5966 0.762451 13.9975 0.762451C13.4019 0.762451 12.807 1.23828 12.4987 2.1988L9.0808 12.8751L1.43417 14.5921C0.0629184 14.8986 -0.486628 17.5027 0.507465 18.9947L6.03897 27.3015L4.72988 39.0343C4.54391 40.7102 5.41054 42.0546 6.38113 42.0546C6.63866 42.0546 6.90351 41.9602 7.15791 41.7522L13.9985 36.2132L20.8386 41.7538C21.0925 41.9594 21.3568 42.053 21.6133 42.053C22.5849 42.053 23.4531 40.7134 23.2671 39.0367L21.9596 27.3031L27.4922 18.9979C28.4868 17.5059 27.9372 14.901 26.566 14.5945ZM20.2065 24.5304L19.2599 25.9515L19.4835 27.958L20.5032 37.1076L15.1681 32.7856L13.999 31.8388L14.0006 6.25786L16.6663 14.5881L17.2503 16.4131L18.5568 16.7067L24.524 18.0479L20.2065 24.5304Z" fill="#E1571B"/>
</svg>
