<svg width="29" height="23" viewBox="0 0 29 23" fill="none" xmlns="http://www.w3.org/2000/svg">
<path d="M27.5148 7.70455L19.5956 6.74727L16.0566 0.800059C15.7385 0.268633 15.1179 0 14.4974 0C13.8806 0 13.2643 0.265039 12.9451 0.800059L9.40511 6.74682L1.48539 7.7032C0.0651655 7.87391 -0.504007 9.32443 0.525589 10.1555L6.25465 14.7824L4.8988 21.3177C4.70619 22.2512 5.60378 23 6.60903 23C6.87576 23 7.15007 22.9474 7.41355 22.8315L14.4985 19.7463L21.5828 22.8324C21.8458 22.947 22.1195 22.9991 22.3852 22.9991C23.3915 22.9991 24.2907 22.2529 24.0981 21.319L22.7439 14.7833L28.474 10.1573C29.5042 9.32623 28.935 7.87525 27.5148 7.70455ZM20.9282 13.2389L19.9478 14.0304L20.1794 15.1481L21.2355 20.2445L15.7098 17.8371L14.499 17.3097L14.5006 3.06098L17.2615 7.70096L17.8664 8.71754L19.2196 8.88105L25.3998 9.62811L20.9282 13.2389Z" fill="#E1571B"/>
</svg>
