<svg width="18" height="39" viewBox="0 0 18 39" fill="none" xmlns="http://www.w3.org/2000/svg">
<path d="M7.65316 2.61221L8.54503 0.629608C8.92266 -0.209869 9.53331 -0.209869 9.90693 0.629608L17.7168 17.9818C18.0944 18.8213 18.0944 20.1787 17.7168 21.0093L9.90693 38.3704C9.52929 39.2099 8.91865 39.2099 8.54503 38.3704L7.65316 36.3878C7.27151 35.5394 7.27954 34.1551 7.66923 33.3246L12.5102 23.0722H0.964178C0.429863 23.0722 0 22.1167 0 20.9289V18.0711C0 16.8833 0.429863 15.9278 0.964178 15.9278H12.5102L7.66923 5.67541C7.27553 4.84486 7.26749 3.46061 7.65316 2.61221Z" fill="#F5F5F5"/>
</svg>
