<svg width="28" height="43" viewBox="0 0 28 43" fill="none" xmlns="http://www.w3.org/2000/svg">
<path d="M26.566 14.7056L18.9199 12.987L15.503 2.30989C15.1958 1.35581 14.5966 0.873535 13.9975 0.873535C13.4019 0.873535 12.807 1.34936 12.4987 2.30989L9.0808 12.9862L1.43417 14.7032C0.0629184 15.0096 -0.486628 17.6138 0.507465 19.1058L6.03897 27.4126L4.72988 39.1454C4.54391 40.8213 5.41054 42.1657 6.38113 42.1657C6.63866 42.1657 6.90351 42.0713 7.15791 41.8633L13.9985 36.3243L20.8386 41.8649C21.0925 42.0705 21.3568 42.1641 21.6133 42.1641C22.5849 42.1641 23.4531 40.8245 23.2671 39.1478L21.9596 27.4142L27.4922 19.109C28.4868 17.617 27.9372 15.0121 26.566 14.7056ZM20.2065 24.6415L19.2599 26.0626L19.4835 28.0691L20.5032 37.2187L15.1681 32.8967L13.999 31.9499L14.0006 6.36894L16.6663 14.6991L17.2503 16.5242L18.5568 16.8178L24.524 18.159L20.2065 24.6415Z" fill="#E1571B"/>
</svg>
